<svg width="512" height="512" viewBox="0 0 512 512" fill="none" xmlns="http://www.w3.org/2000/svg">
<path d="M117.333 0H394.666C459.468 0 512 52.532 512 117.333V394.666C512 459.468 459.468 512 394.667 512H117.333C52.532 512 0 459.468 0 394.667V117.333C0 52.532 52.532 0 117.333 0Z" fill="#727174"/>
<path d="M336.448 247.019L187.115 151.019C182.164 147.826 175.563 149.251 172.37 154.202C171.255 155.93 170.664 157.944 170.667 160.001V352.001C170.657 357.892 175.425 362.675 181.316 362.685C183.373 362.688 185.386 362.097 187.115 360.982L336.448 264.982C341.408 261.804 342.853 255.206 339.675 250.246C338.845 248.95 337.744 247.849 336.448 247.019Z" fill="white"/>
<path d="M330.667 362.667C324.776 362.667 320 357.891 320 352V160C320 154.109 324.776 149.333 330.667 149.333C336.558 149.333 341.334 154.109 341.334 160V352C341.333 357.891 336.558 362.667 330.667 362.667Z" fill="white"/>
</svg>
