<svg width="512" height="512" viewBox="0 0 512 512" fill="none" xmlns="http://www.w3.org/2000/svg">
<path d="M117.333 0H394.666C459.468 0 512 52.532 512 117.333V394.666C512 459.468 459.468 512 394.667 512H117.333C52.532 512 0 459.468 0 394.667V117.333C0 52.532 52.532 0 117.333 0Z" fill="#727174"/>
<rect x="118" y="216" width="74" height="79" rx="10" fill="white"/>
<path d="M265.5 358.09V153.789C265.5 146.972 257.518 143.278 252.322 147.691L143.475 240.124C141.059 242.176 140.082 245.461 140.984 248.499L148.329 273.241C148.767 274.716 149.621 276.033 150.788 277.035L252.289 364.16C257.478 368.614 265.5 364.928 265.5 358.09Z" fill="white"/>
<path d="M290.5 190.952C315.522 201.93 333 226.924 333 256C333 285.076 315.522 310.07 290.5 321.048" stroke="white" stroke-width="23" stroke-linecap="round" stroke-linejoin="round"/>
<path d="M317 151C357.625 168.722 386 209.066 386 256C386 302.934 357.625 343.278 317 361" stroke="white" stroke-width="23" stroke-linecap="round" stroke-linejoin="round"/>
</svg>
